<svg width="302" height="50" viewBox="0 0 302 50" fill="none" xmlns="http://www.w3.org/2000/svg">
<path d="M77 34L80.4659 14.3317H98.4951L102.541 19.2488L99.9463 34H93.3902L95.9854 19.2488L94.6366 17.6098H86.4415L83.5561 34H77ZM102.143 34L104.738 19.2488L110.526 14.3317H128.555L127.104 22.5268L121.333 27.4439H113.138L113.719 24.1659H118.636L120.548 22.5268L121.419 17.6098H113.223L111.294 19.2488L109.279 30.722H125.67L125.089 34H102.143ZM127.286 34L128.737 25.8049L132.579 22.5268L129.881 19.2488L130.752 14.3317H137.308L136.437 19.2488L137.786 20.8878H144.342L146.271 19.2488L147.142 14.3317H153.698L152.827 19.2488L148.969 22.5268L151.683 25.8049L150.232 34H143.676L145.127 25.8049L143.779 24.1659H137.222L135.293 25.8049L133.842 34H127.286ZM157.346 34L153.299 29.0829L157.056 7.77561H163.612L162.451 14.3317H169.007L168.426 17.6098H161.87L159.856 29.0829L161.204 30.722H166.121L165.541 34H157.346ZM167.735 34L171.2 14.3317H177.757L174.871 30.722H179.788L185.576 25.8049L187.591 14.3317H194.147L192.132 25.8049L182.486 34H167.735ZM192.877 34L195.473 19.2488L201.26 14.3317H219.29L217.838 22.5268L212.068 27.4439H203.873L204.453 24.1659H209.37L211.282 22.5268L212.153 17.6098H203.958L202.029 19.2488L200.014 30.722H216.404L215.824 34H192.877ZM218.02 34L220.616 19.2488L226.403 14.3317H244.433L242.981 22.5268L237.211 27.4439H238.85L239.908 30.722H241.547L240.967 34H234.411L232.294 27.4439H229.016L229.596 24.1659H234.513L236.425 22.5268L237.296 17.6098H229.101L227.172 19.2488L224.576 34H218.02ZM243.163 34L243.744 30.722H258.495L260.424 29.0829L260.715 27.4439H244.324L245.758 19.2488L251.546 14.3317H269.576L268.415 20.8878H261.858L262.439 17.6098H254.244L252.315 19.2488L251.461 24.1659H267.851L266.98 29.0829L261.193 34H243.163ZM268.306 34L270.901 19.2488L276.689 14.3317H294.718L293.267 22.5268L287.496 27.4439H279.301L279.882 24.1659H284.799L286.711 22.5268L287.582 17.6098H279.387L277.457 19.2488L275.443 30.722H291.833L291.253 34H268.306Z" fill="#A9DEEE"/>
<path d="M0 0H62.1679L49.9781 50H0V0Z" fill="#A9DEEE"/>
<path d="M17.5829 16.9624C18.2708 16.5928 19.2339 16.2365 20.4722 15.8933C21.7379 15.5502 23.0725 15.2731 24.4759 15.0619C25.9067 14.8243 27.2138 14.7056 28.397 14.7056C31.2038 14.7056 33.3776 15.2335 34.9185 16.2893C36.487 17.3451 37.2712 19.1927 37.2712 21.8323V35.2938H31.1212V23.02C31.1212 21.9906 30.8185 21.1592 30.2131 20.5257C29.6078 19.8922 28.5621 19.5755 27.0762 19.5755C26.4433 19.5755 25.8104 19.6547 25.1776 19.813C24.5447 19.945 24.0631 20.0902 23.7329 20.2486V35.2938H17.5829V16.9624Z" fill="#123B53"/>
</svg>
