<svg width="201" height="41" viewBox="0 0 201 41" fill="none" xmlns="http://www.w3.org/2000/svg">
<path d="M64.988 31V12.324H68.852L77.112 23.44V12.324H81.284V31H77.868L69.16 19.604V31H64.988ZM91.5217 31.42C90.0844 31.42 88.8244 31.1307 87.7417 30.552C86.6591 29.9547 85.8191 29.1147 85.2217 28.032C84.6244 26.9493 84.3257 25.6427 84.3257 24.112C84.3257 21.648 84.9324 19.744 86.1457 18.4C87.3777 17.0373 89.1231 16.356 91.3817 16.356C93.7151 16.356 95.3951 17.112 96.4217 18.624C97.4484 20.1173 97.9524 22.2453 97.9337 25.008H88.5817C88.7497 25.96 89.1511 26.688 89.7857 27.192C90.4391 27.696 91.3537 27.948 92.5297 27.948C93.3137 27.948 94.0791 27.8267 94.8257 27.584C95.5911 27.3227 96.2071 27.0893 96.6737 26.884V30.468C96.0017 30.748 95.2457 30.972 94.4057 31.14C93.5844 31.3267 92.6231 31.42 91.5217 31.42ZM91.2137 19.548C90.5417 19.548 89.9631 19.7627 89.4777 20.192C89.0111 20.6027 88.7031 21.3213 88.5537 22.348H93.7897C93.6591 21.34 93.3884 20.6213 92.9777 20.192C92.5671 19.7627 91.9791 19.548 91.2137 19.548ZM114.776 31H109.848L106.852 26.8L103.968 31H99.5724L104.892 24.056L99.7124 16.832H104.64L107.664 21.088L110.576 16.832H115L109.652 23.832L114.776 31ZM123.253 31.56C121.611 31.56 120.388 31.1773 119.585 30.412C118.783 29.628 118.381 28.5267 118.381 27.108V20.024H116.309V16.832H118.381V12.94H122.749V16.832H125.857V20.024H122.749V26.576C122.749 27.0613 122.852 27.4253 123.057 27.668C123.263 27.892 123.608 28.004 124.093 28.004C124.747 28.004 125.335 27.808 125.857 27.416V30.972C125.447 31.196 125.017 31.3453 124.569 31.42C124.121 31.5133 123.683 31.56 123.253 31.56ZM133.784 31L127.876 16.832H132.384L136.136 26.408L139.468 16.832H143.864L137.956 31H133.784ZM151.951 31.42C150.514 31.42 149.254 31.1307 148.171 30.552C147.089 29.9547 146.249 29.1147 145.651 28.032C145.054 26.9493 144.755 25.6427 144.755 24.112C144.755 21.648 145.362 19.744 146.575 18.4C147.807 17.0373 149.553 16.356 151.811 16.356C154.145 16.356 155.825 17.112 156.851 18.624C157.878 20.1173 158.382 22.2453 158.363 25.008H149.011C149.179 25.96 149.581 26.688 150.215 27.192C150.869 27.696 151.783 27.948 152.959 27.948C153.743 27.948 154.509 27.8267 155.255 27.584C156.021 27.3227 156.637 27.0893 157.103 26.884V30.468C156.431 30.748 155.675 30.972 154.835 31.14C154.014 31.3267 153.053 31.42 151.951 31.42ZM151.643 19.548C150.971 19.548 150.393 19.7627 149.907 20.192C149.441 20.6027 149.133 21.3213 148.983 22.348H154.219C154.089 21.34 153.818 20.6213 153.407 20.192C152.997 19.7627 152.409 19.548 151.643 19.548ZM161.262 31V18.316C161.523 18.1107 161.99 17.8587 162.662 17.56C163.334 17.2613 164.099 17 164.958 16.776C165.835 16.5333 166.713 16.412 167.59 16.412C168.467 16.412 169.158 16.4773 169.662 16.608C170.166 16.7387 170.549 16.9067 170.81 17.112V20.164C170.381 20.0707 169.821 20.0053 169.13 19.968C168.439 19.9307 167.749 19.9213 167.058 19.94C166.386 19.94 165.845 19.9773 165.434 20.052V31H161.262ZM177.247 31.42C176.239 31.42 175.371 31.308 174.643 31.084C173.934 30.8787 173.271 30.6453 172.655 30.384V26.716C173.215 27.1267 173.897 27.5187 174.699 27.892C175.521 28.2467 176.426 28.424 177.415 28.424C178.087 28.424 178.554 28.312 178.815 28.088C179.095 27.8453 179.235 27.556 179.235 27.22C179.235 26.9027 179.095 26.6507 178.815 26.464C178.535 26.2587 178.171 26.0907 177.723 25.96C177.275 25.8293 176.799 25.708 176.295 25.596C175.679 25.4653 175.082 25.2507 174.503 24.952C173.943 24.6347 173.477 24.1867 173.103 23.608C172.749 23.0107 172.571 22.2453 172.571 21.312C172.571 20.416 172.749 19.66 173.103 19.044C173.458 18.428 173.925 17.9333 174.503 17.56C175.082 17.1867 175.707 16.9253 176.379 16.776C177.051 16.608 177.705 16.5333 178.339 16.552C179.497 16.5893 180.411 16.72 181.083 16.944C181.755 17.1493 182.381 17.42 182.959 17.756V21.032C182.325 20.6773 181.69 20.3507 181.055 20.052C180.439 19.7347 179.73 19.576 178.927 19.576C178.199 19.576 177.677 19.6973 177.359 19.94C177.042 20.164 176.883 20.4533 176.883 20.808C176.883 21.3493 177.117 21.7227 177.583 21.928C178.05 22.1333 178.601 22.32 179.235 22.488C179.702 22.6 180.187 22.74 180.691 22.908C181.195 23.0573 181.662 23.2813 182.091 23.58C182.521 23.86 182.866 24.2613 183.127 24.784C183.407 25.3067 183.547 25.9787 183.547 26.8C183.529 27.9387 183.221 28.844 182.623 29.516C182.026 30.188 181.251 30.6733 180.299 30.972C179.347 31.2707 178.33 31.42 177.247 31.42ZM192.967 31.42C191.53 31.42 190.27 31.1307 189.187 30.552C188.104 29.9547 187.264 29.1147 186.667 28.032C186.07 26.9493 185.771 25.6427 185.771 24.112C185.771 21.648 186.378 19.744 187.591 18.4C188.823 17.0373 190.568 16.356 192.827 16.356C195.16 16.356 196.84 17.112 197.867 18.624C198.894 20.1173 199.398 22.2453 199.379 25.008H190.027C190.195 25.96 190.596 26.688 191.231 27.192C191.884 27.696 192.799 27.948 193.975 27.948C194.759 27.948 195.524 27.8267 196.271 27.584C197.036 27.3227 197.652 27.0893 198.119 26.884V30.468C197.447 30.748 196.691 30.972 195.851 31.14C195.03 31.3267 194.068 31.42 192.967 31.42ZM192.659 19.548C191.987 19.548 191.408 19.7627 190.923 20.192C190.456 20.6027 190.148 21.3213 189.999 22.348H195.235C195.104 21.34 194.834 20.6213 194.423 20.192C194.012 19.7627 193.424 19.548 192.659 19.548Z" fill="#A9DEEE"/>
<path d="M0 0H51L41 41H0V0Z" fill="#A9DEEE"/>
<path d="M14.4243 13.9094C14.9886 13.6064 15.7787 13.3142 16.7945 13.0328C17.8329 12.7514 18.9277 12.5242 20.079 12.351C21.2528 12.1562 22.3251 12.0588 23.2957 12.0588C25.5983 12.0588 27.3816 12.4917 28.6457 13.3575C29.9324 14.2232 30.5758 15.7383 30.5758 17.9027V28.9412H25.5305V18.8767C25.5305 18.0326 25.2822 17.3508 24.7856 16.8313C24.289 16.3119 23.4312 16.0522 22.2122 16.0522C21.693 16.0522 21.1738 16.1171 20.6546 16.247C20.1354 16.3552 19.7404 16.4742 19.4695 16.6041V28.9412H14.4243V13.9094Z" fill="#123B53"/>
</svg>
