<svg width="44" height="45" viewBox="0 0 44 45" fill="none" xmlns="http://www.w3.org/2000/svg">
<path d="M21.6952 0H22.5905C27.4792 0 32.1973 1.91055 36.7449 5.73165C41.5767 10.7632 43.9926 16.0428 43.9926 21.5702V23.7141C43.9926 26.9227 42.7846 30.6928 40.3687 35.0243C37.3844 39.3996 33.32 42.4186 28.1755 44.0812C25.788 44.6937 23.7985 45 22.2068 45H22.0789C16.1244 45 10.8024 42.6082 6.11267 37.8245C2.13355 33.1575 0.143982 28.053 0.143982 22.5109C0.143982 16.5897 2.39645 11.1716 6.90139 6.25668C11.5911 2.08556 16.5224 0 21.6952 0ZM22.9955 18.6388V19.7107C22.9955 19.8858 22.9032 19.9733 22.7184 19.9733C20.0041 19.5941 17.6735 18.6169 15.7265 17.0418L13.9146 15.3136H13.7654C13.7654 15.4594 13.5949 15.8167 13.2538 16.3855V17.9825C13.3675 18.8867 13.9715 19.9076 15.0657 21.0452V21.1765C14.4688 21.1765 13.8649 21.0015 13.2538 20.6514V20.7827C13.2538 22.4891 14.3338 23.9548 16.4939 25.1799L16.2381 25.3111H15.5986L14.9378 25.1799V25.4424C15.9326 27.3092 17.1903 28.2426 18.7109 28.2426V28.6364C17.0055 29.701 15.3144 30.2333 13.6375 30.2333H12.8701V30.4959C15.3144 31.648 17.4319 32.2241 19.2225 32.2241C22.9742 32.2241 26.1717 30.6709 28.815 27.5644C30.7193 24.8517 31.6715 22.2776 31.6715 19.842V18.9232C33.0499 17.5668 33.7463 16.8085 33.7605 16.648V16.5168C33.2631 16.7793 32.5668 17.0053 31.6715 17.1949L31.5436 16.9105C32.3536 16.4293 32.9576 15.7657 33.3555 14.9198V14.7885H33.2276C31.9486 15.4157 31.1741 15.7292 30.9041 15.7292H30.5204C29.5682 14.9271 28.7013 14.4823 27.9197 14.3947H26.8752C25.4257 14.3947 24.2603 15.2333 23.3792 16.9105C23.1234 17.3481 22.9955 17.9242 22.9955 18.6388Z" fill="#A9DEEE"/>
</svg>
